<svg xmlns="http://www.w3.org/2000/svg" xmlns:xlink="http://www.w3.org/1999/xlink" preserveAspectRatio="xMidYMid" width="96" height="96" viewBox="0 0 96 96">
  <defs>
    <style>
      .cls-1 {
        fill: #000;
        stroke: #fff;
        stroke-linejoin: round;
        stroke-width: 3px;
        fill-rule: evenodd;
      }
    </style>
  </defs>
  <path d="M84.451,2.909 C89.181,0.373 95.995,0.966 97.284,6.917 C97.777,9.137 97.543,12.113 95.310,14.932 C81.820,26.754 69.770,37.415 58.785,57.015 C50.470,69.253 46.053,82.890 40.030,96.091 C38.127,97.824 33.726,98.147 32.132,96.091 C27.189,90.091 22.248,79.609 16.338,72.044 C9.067,62.737 1.086,57.945 1.531,53.007 C1.367,51.477 1.640,46.703 7.454,44.991 C10.989,43.950 15.418,43.951 20.961,46.580 C23.882,47.966 27.563,49.782 29.171,51.003 C33.962,54.640 32.710,54.996 35.094,51.003 C36.225,48.744 40.961,42.593 50.888,30.964 C61.424,18.622 78.441,5.880 84.451,2.909 Z" class="cls-1"/>
</svg>
